<svg xmlns="http://www.w3.org/2000/svg" viewBox="0 0 1600 390" role="img" aria-label="Abstract knowledge horizon with flowing lines and light">
<defs>
<linearGradient id="bg" x1="0" y1="0" x2="1" y2="1">
<stop offset="0%" stop-color="#071523"/>
<stop offset="52%" stop-color="#0c2532"/>
<stop offset="100%" stop-color="#153947"/>
</linearGradient>
<radialGradient id="sun" cx="50%" cy="42%" r="50%">
<stop offset="0%" stop-color="#f6d38a" stop-opacity=".95"/>
<stop offset="28%" stop-color="#dbab54" stop-opacity=".40"/>
<stop offset="100%" stop-color="#dbab54" stop-opacity="0"/>
</radialGradient>
<linearGradient id="fade" x1="0" y1="0" x2="0" y2="1">
<stop offset="0%" stop-color="#ffffff" stop-opacity="0"/>
<stop offset="100%" stop-color="#ffffff" stop-opacity=".92"/>
</linearGradient>
</defs>
<rect width="1600" height="390" fill="url(#bg)"/>
<circle cx="800" cy="157" r="190" fill="url(#sun)"/>
<polyline points="-20,244.3 0,250.4 20,256.4 40,262.0 60,266.8 80,270.7 100,273.3 120,274.5 140,274.3 160,272.6 180,269.6 200,265.3 220,260.0 240,254.0 260,247.6 280,241.1 300,234.8 320,229.1 340,224.3 360,220.6 380,218.1 400,217.0 420,217.3 440,218.9 460,221.6 480,225.4 500,229.9 520,234.9 540,240.0 560,244.8 580,249.2 600,252.8 620,255.4 640,256.8 660,257.0 680,255.9 700,253.6 720,250.1 740,245.9 760,240.9 780,235.7 800,230.5 820,225.5 840,221.2 860,217.9 880,215.6 900,214.6 920,215.1 940,216.9 960,220.1 980,224.4 1000,229.8 1020,235.9 1040,242.4 1060,249.1 1080,255.4 1100,261.2 1120,266.2 1140,270.0 1160,272.5 1180,273.6 1200,273.2 1220,271.5 1240,268.4 1260,264.2 1280,259.2 1300,253.6 1320,247.7 1340,242.0 1360,236.6 1380,232.0 1400,228.3 1420,225.7 1440,224.4 1460,224.4 1480,225.7 1500,228.2 1520,231.6 1540,235.8 1560,240.5 1580,245.3 1600,250.0 1620,254.2" fill="none" stroke="#78d8ce" stroke-opacity="0.56" stroke-width="1.6" />
<polyline points="-20,263.9 0,270.4 20,276.8 40,282.9 60,288.4 80,293.2 100,297.1 120,299.8 140,301.3 160,301.5 180,300.5 200,298.1 220,294.6 240,290.0 260,284.6 280,278.4 300,271.8 320,265.0 340,258.2 360,251.7 380,245.8 400,240.5 420,236.2 440,232.9 460,230.9 480,230.0 500,230.4 520,232.0 540,234.7 560,238.4 580,242.9 600,248.0 620,253.5 640,259.1 660,264.6 680,269.8 700,274.5 720,278.4 740,281.3 760,283.3 780,284.1 800,283.7 820,282.2 840,279.5 860,275.9 880,271.5 900,266.3 920,260.8 940,255.0 960,249.2 980,243.8 1000,238.8 1020,234.5 1040,231.2 1060,228.9 1080,227.8 1100,227.9 1120,229.3 1140,231.9 1160,235.6 1180,240.4 1200,246.1 1220,252.4 1240,259.1 1260,266.0 1280,272.9 1300,279.4 1320,285.4 1340,290.6 1360,294.9 1380,298.0 1400,300.0 1420,300.6 1440,300.0 1460,298.1 1480,295.1 1500,291.0 1520,286.0 1540,280.4 1560,274.3 1580,268.1 1600,261.8 1620,255.9" fill="none" stroke="#4aa9a6" stroke-opacity="0.48" stroke-width="1.4" />
<polyline points="-20,283.7 0,290.4 20,297.0 40,303.4 60,309.4 80,314.9 100,319.5 120,323.4 140,326.2 160,328.0 180,328.6 200,328.1 220,326.5 240,323.8 260,320.0 280,315.4 300,309.9 320,303.8 340,297.3 360,290.4 380,283.4 400,276.4 420,269.8 440,263.5 460,257.9 480,253.0 500,249.0 520,246.0 540,244.0 560,243.1 580,243.3 600,244.6 620,246.9 640,250.1 660,254.2 680,259.0 700,264.4 720,270.1 740,276.0 760,282.0 780,287.8 800,293.3 820,298.3 840,302.6 860,306.1 880,308.8 900,310.4 920,311.1 940,310.7 960,309.2 980,306.8 1000,303.4 1020,299.2 1040,294.3 1060,288.9 1080,283.0 1100,277.0 1120,270.9 1140,264.9 1160,259.3 1180,254.1 1200,249.6 1220,245.9 1240,243.2 1260,241.4 1280,240.7 1300,241.1 1320,242.7 1340,245.3 1360,248.9 1380,253.4 1400,258.8 1420,264.9 1440,271.4 1460,278.3 1480,285.4 1500,292.4 1520,299.3 1540,305.7 1560,311.5 1580,316.6 1600,320.9 1620,324.2" fill="none" stroke="#d1a650" stroke-opacity="0.42" stroke-width="1.2" />
<polyline points="-20,307.8 0,314.4 20,321.0 40,327.4 60,333.5 80,339.2 100,344.3 120,348.8 140,352.5 160,355.4 180,357.4 200,358.4 220,358.5 240,357.6 260,355.8 280,353.0 300,349.4 320,345.0 340,339.9 360,334.1 380,327.9 400,321.4 420,314.6 440,307.7 460,300.8 480,294.2 500,287.9 520,282.0 540,276.6 560,271.9 580,268.0 600,264.9 620,262.7 640,261.4 660,261.1 680,261.7 700,263.2 720,265.5 740,268.7 760,272.6 780,277.2 800,282.3 820,287.8 840,293.6 860,299.6 880,305.6 900,311.5 920,317.2 940,322.5 960,327.3 980,331.5 1000,335.0 1020,337.8 1040,339.8 1060,340.9 1080,341.0 1100,340.3 1120,338.7 1140,336.3 1160,333.0 1180,329.1 1200,324.4 1220,319.3 1240,313.7 1260,307.8 1280,301.7 1300,295.5 1320,289.5 1340,283.7 1360,278.2 1380,273.3 1400,268.9 1420,265.2 1440,262.2 1460,260.2 1480,259.0 1500,258.8 1520,259.5 1540,261.1 1560,263.7 1580,267.1 1600,271.4 1620,276.3" fill="none" stroke="#58b8ae" stroke-opacity="0.34" stroke-width="1.1" />
<polyline points="-20,331.7 0,338.4 20,345.1 40,351.6 60,357.9 80,363.9 100,369.4 120,374.4 140,378.8 160,382.5 180,385.5 200,387.7 220,389.1 240,389.6 260,389.2 280,388.0 300,386.0 320,383.2 340,379.5 360,375.2 380,370.3 400,364.7 420,358.7 440,352.3 460,345.6 480,338.8 500,331.8 520,324.9 540,318.2 560,311.7 580,305.5 600,299.8 620,294.6 640,290.0 660,286.1 680,282.9 700,280.5 720,278.9 740,278.2 760,278.2 780,279.1 800,280.9 820,283.4 840,286.6 860,290.5 880,294.9 900,299.9 920,305.4 940,311.1 960,317.1 980,323.3 1000,329.4 1020,335.5 1040,341.4 1060,347.0 1080,352.3 1100,357.1 1120,361.3 1140,364.9 1160,367.8 1180,370.0 1200,371.4 1220,372.1 1240,371.9 1260,370.9 1280,369.1 1300,366.6 1320,363.3 1340,359.4 1360,354.9 1380,349.9 1400,344.4 1420,338.5 1440,332.5 1460,326.2 1480,320.0 1500,313.8 1520,307.7 1540,302.0 1560,296.5 1580,291.6 1600,287.2 1620,283.5" fill="none" stroke="#ffffff" stroke-opacity="0.16" stroke-width="0.9" />
<path d="M 260 330 Q 520 45 780 330" fill="none" stroke="#6bd0c6" stroke-opacity="0.26" stroke-width="1.1"/>
<path d="M 420 330 Q 680 45 940 330" fill="none" stroke="#e0b45d" stroke-opacity="0.22" stroke-width="1.1"/>
<path d="M 660 330 Q 920 45 1180 330" fill="none" stroke="#6bd0c6" stroke-opacity="0.22" stroke-width="1.1"/>
<path d="M 820 330 Q 1080 45 1340 330" fill="none" stroke="#e0b45d" stroke-opacity="0.18" stroke-width="1.1"/>
<circle cx="724.6" cy="53.3" r="1.0" fill="#e8c475" fill-opacity="0.60"/>
<circle cx="187.5" cy="142.0" r="1.2" fill="#e8c475" fill-opacity="0.77"/>
<circle cx="1287.8" cy="97.6" r="0.8" fill="#ffffff" fill-opacity="0.40"/>
<circle cx="646.3" cy="42.6" r="1.7" fill="#b8efe8" fill-opacity="0.65"/>
<circle cx="104.5" cy="132.0" r="1.2" fill="#b8efe8" fill-opacity="0.43"/>
<circle cx="42.3" cy="166.5" r="1.2" fill="#e8c475" fill-opacity="0.30"/>
<circle cx="761.6" cy="228.2" r="1.7" fill="#ffffff" fill-opacity="0.68"/>
<circle cx="1548.6" cy="198.4" r="1.0" fill="#e8c475" fill-opacity="0.36"/>
<circle cx="1390.4" cy="214.8" r="0.8" fill="#b8efe8" fill-opacity="0.57"/>
<circle cx="734.1" cy="163.2" r="1.0" fill="#b8efe8" fill-opacity="0.59"/>
<circle cx="308.7" cy="181.2" r="1.2" fill="#e8c475" fill-opacity="0.57"/>
<circle cx="215.9" cy="224.0" r="0.8" fill="#b8efe8" fill-opacity="0.51"/>
<circle cx="1307.9" cy="61.0" r="1.0" fill="#b8efe8" fill-opacity="0.78"/>
<circle cx="1452.5" cy="202.8" r="1.7" fill="#b8efe8" fill-opacity="0.47"/>
<circle cx="247.6" cy="221.7" r="1.2" fill="#b8efe8" fill-opacity="0.53"/>
<circle cx="237.7" cy="214.0" r="1.7" fill="#ffffff" fill-opacity="0.28"/>
<circle cx="760.7" cy="256.6" r="1.0" fill="#e8c475" fill-opacity="0.40"/>
<circle cx="773.8" cy="120.9" r="1.0" fill="#b8efe8" fill-opacity="0.65"/>
<circle cx="1180.3" cy="148.6" r="1.2" fill="#ffffff" fill-opacity="0.29"/>
<circle cx="885.6" cy="98.4" r="1.2" fill="#b8efe8" fill-opacity="0.49"/>
<circle cx="120.1" cy="111.9" r="0.8" fill="#e8c475" fill-opacity="0.67"/>
<circle cx="1404.3" cy="56.4" r="1.0" fill="#ffffff" fill-opacity="0.60"/>
<circle cx="1461.7" cy="135.5" r="1.7" fill="#e8c475" fill-opacity="0.27"/>
<circle cx="95.9" cy="135.0" r="0.8" fill="#e8c475" fill-opacity="0.49"/>
<circle cx="1399.8" cy="178.9" r="1.0" fill="#e8c475" fill-opacity="0.37"/>
<circle cx="513.4" cy="171.4" r="1.0" fill="#ffffff" fill-opacity="0.46"/>
<circle cx="349.5" cy="249.8" r="0.8" fill="#e8c475" fill-opacity="0.42"/>
<circle cx="563.6" cy="68.4" r="1.7" fill="#b8efe8" fill-opacity="0.26"/>
<circle cx="577.8" cy="38.9" r="0.8" fill="#e8c475" fill-opacity="0.64"/>
<circle cx="135.7" cy="72.7" r="0.8" fill="#ffffff" fill-opacity="0.54"/>
<circle cx="962.1" cy="146.4" r="1.0" fill="#ffffff" fill-opacity="0.40"/>
<circle cx="529.9" cy="56.5" r="1.0" fill="#ffffff" fill-opacity="0.70"/>
<circle cx="1161.5" cy="252.6" r="1.7" fill="#ffffff" fill-opacity="0.47"/>
<circle cx="1465.7" cy="87.0" r="1.7" fill="#e8c475" fill-opacity="0.43"/>
<circle cx="552.9" cy="96.0" r="1.2" fill="#b8efe8" fill-opacity="0.35"/>
<circle cx="1057.7" cy="143.2" r="0.8" fill="#e8c475" fill-opacity="0.74"/>
<circle cx="729.5" cy="224.1" r="1.7" fill="#b8efe8" fill-opacity="0.32"/>
<circle cx="1014.5" cy="204.6" r="1.0" fill="#b8efe8" fill-opacity="0.48"/>
<circle cx="711.3" cy="181.8" r="1.2" fill="#ffffff" fill-opacity="0.27"/>
<circle cx="123.3" cy="124.5" r="1.2" fill="#b8efe8" fill-opacity="0.66"/>
<circle cx="1181.6" cy="209.1" r="1.0" fill="#e8c475" fill-opacity="0.76"/>
<circle cx="79.1" cy="49.3" r="0.8" fill="#e8c475" fill-opacity="0.61"/>
<circle cx="1135.6" cy="65.9" r="1.7" fill="#e8c475" fill-opacity="0.27"/>
<circle cx="1460.4" cy="267.4" r="1.0" fill="#ffffff" fill-opacity="0.45"/>
<circle cx="715.5" cy="138.3" r="1.2" fill="#b8efe8" fill-opacity="0.58"/>
<circle cx="67.3" cy="55.5" r="1.0" fill="#e8c475" fill-opacity="0.64"/>
<circle cx="740.0" cy="203.8" r="1.2" fill="#b8efe8" fill-opacity="0.65"/>
<circle cx="384.6" cy="48.6" r="1.2" fill="#ffffff" fill-opacity="0.29"/>
<circle cx="1025.7" cy="238.9" r="1.0" fill="#ffffff" fill-opacity="0.27"/>
<circle cx="626.6" cy="52.0" r="1.7" fill="#b8efe8" fill-opacity="0.68"/>
<circle cx="422.2" cy="125.1" r="1.2" fill="#e8c475" fill-opacity="0.76"/>
<circle cx="1174.8" cy="83.3" r="1.7" fill="#e8c475" fill-opacity="0.70"/>
<circle cx="1299.3" cy="247.0" r="1.2" fill="#e8c475" fill-opacity="0.27"/>
<circle cx="1347.1" cy="255.1" r="1.2" fill="#b8efe8" fill-opacity="0.68"/>
<circle cx="1414.1" cy="83.2" r="1.2" fill="#b8efe8" fill-opacity="0.33"/>
<circle cx="125.4" cy="238.8" r="1.0" fill="#b8efe8" fill-opacity="0.75"/>
<circle cx="735.2" cy="115.0" r="0.8" fill="#ffffff" fill-opacity="0.31"/>
<circle cx="682.4" cy="222.7" r="1.2" fill="#b8efe8" fill-opacity="0.74"/>
<circle cx="612.5" cy="264.0" r="1.7" fill="#b8efe8" fill-opacity="0.71"/>
<circle cx="830.1" cy="169.6" r="0.8" fill="#e8c475" fill-opacity="0.49"/>
<circle cx="616.9" cy="46.6" r="1.7" fill="#b8efe8" fill-opacity="0.63"/>
<circle cx="114.5" cy="88.9" r="1.2" fill="#b8efe8" fill-opacity="0.27"/>
<circle cx="488.8" cy="64.0" r="1.7" fill="#b8efe8" fill-opacity="0.27"/>
<circle cx="1219.5" cy="269.6" r="0.8" fill="#e8c475" fill-opacity="0.40"/>
<circle cx="1362.1" cy="57.4" r="1.2" fill="#e8c475" fill-opacity="0.35"/>
<circle cx="1319.3" cy="175.5" r="1.7" fill="#e8c475" fill-opacity="0.26"/>
<circle cx="594.9" cy="110.2" r="1.0" fill="#ffffff" fill-opacity="0.42"/>
<circle cx="1095.6" cy="235.6" r="0.8" fill="#e8c475" fill-opacity="0.55"/>
<circle cx="1018.2" cy="35.6" r="0.8" fill="#e8c475" fill-opacity="0.42"/>
<circle cx="1201.1" cy="134.6" r="1.2" fill="#b8efe8" fill-opacity="0.36"/>
<circle cx="1193.9" cy="253.7" r="0.8" fill="#e8c475" fill-opacity="0.44"/>
<circle cx="604.0" cy="231.3" r="1.7" fill="#b8efe8" fill-opacity="0.52"/>
<rect y="308" width="1600" height="82" fill="url(#fade)"/>
</svg>